PathFileType	4	(X/Y/Z)	C:\Users\WrightLab\Desktop\Jo\P1_boxCal33.trc
DataRate	CameraRate	NumFrames	NumMarkers	Units	OrigDataRate	OrigDataStartFrame	OrigNumFrames
100.00	100.00	       43	19	mm	100.00	1	       624
Frame#	Time	Headset_Front			Headset_Back			Headset_Left			Headset_Right			Left_Shoulder			Right_Shoulder			Sternum			C7			Left Elbow			Right Elbow			Left Wrist			Right Wrist			Left ASIS			Right ASIS			S2			Left Knee			Right Knee			Left Ankle			Right Ankle			
		X1	Y1	Z1	X2	Y2	Z2	X3	Y3	Z3	X4	Y4	Z4	X5	Y5	Z5	X6	Y6	Z6	X7	Y7	Z7	X8	Y8	Z8	X9	Y9	Z9	X10	Y10	Z10	X11	Y11	Z11	X12	Y12	Z12	X13	Y13	Z13	X14	Y14	Z14	X15	Y15	Z15	X16	Y16	Z16	X17	Y17	Z17	X18	Y18	Z18	X19	Y19	Z19	

1	0.000																									37.12380	925.38660	-1633.89893				64.84026	720.36932	-1543.47021				-148.33792	848.18170	-1446.65112							-86.02698	411.55811	-1601.72583										
2	0.010																									38.63729	924.34631	-1629.32556				66.02142	720.95587	-1542.51099				-149.05942	846.84277	-1446.50134							-86.19898	411.54211	-1602.02686										
3	0.020																									39.22232	924.69952	-1626.91162				65.09580	720.84430	-1540.10217				-149.18564	846.33386	-1447.26013							-86.68981	410.65140	-1602.02747										
4	0.030																									39.81994	925.21655	-1624.24304				65.41240	720.56396	-1538.34497				-150.20673	846.13330	-1444.47461							-86.80017	411.34244	-1603.25708										
5	0.040																									40.28045	925.56549	-1621.98499				65.46168	720.60333	-1536.73511				-150.92210	845.67212	-1442.15747							-86.94117	411.25739	-1603.64392										
6	0.050																									40.27598	925.74390	-1618.76624				65.73119	720.61005	-1533.10291				-151.84166	845.13440	-1439.78113							-87.10019	411.20560	-1603.75684										
7	0.060																									40.57922	925.37616	-1615.31860				64.33135	720.11285	-1529.74500				-152.00793	844.54077	-1440.78955							-87.18334	411.05627	-1604.18665										
8	0.070																									40.98572	925.63385	-1612.96375				63.20598	719.30450	-1524.56921				-152.91650	843.32806	-1441.12830							-87.38795	411.05063	-1604.37341										
9	0.080																									41.26738	924.87067	-1608.92468				63.46217	719.43500	-1523.61499				-154.41624	841.21155	-1440.84106							-87.53525	411.08093	-1604.38672										
10	0.090																									41.20033	924.73077	-1606.09644				63.70465	719.67535	-1522.12109				-155.91116	839.78381	-1440.99365							-87.83755	411.00098	-1604.80835										
11	0.100																									41.43623	924.90668	-1603.79016				64.53681	719.74988	-1521.27649				-157.73691	838.55481	-1441.16223							-87.94059	411.00507	-1604.67188										
12	0.110																									41.58502	924.52087	-1600.44934				62.81926	718.72443	-1516.53174				-159.27800	838.36914	-1440.35522							-88.48160	410.63116	-1604.00415										
13	0.120																									40.81392	923.71240	-1596.57764				62.12682	717.34216	-1512.76013				-160.03036	837.92224	-1439.77722							-88.56720	410.68097	-1603.86182										
14	0.130																									41.58661	922.87683	-1593.05273				61.24913	716.51532	-1508.76331				-161.19687	836.66034	-1437.44092							-88.63347	410.64700	-1603.62244										
15	0.140																									41.91185	922.96552	-1590.43665				62.17540	717.10620	-1508.07959				-162.57460	835.14496	-1436.81799							-88.99956	410.69650	-1603.42456										
16	0.150																									42.23052	923.01636	-1588.06775				58.99825	716.23120	-1502.33569				-165.29335	834.56177	-1432.11072							-89.43026	410.92224	-1603.42798										
17	0.160																									42.45010	922.18799	-1584.16589				59.21658	716.04962	-1499.79150				-166.95076	832.47339	-1437.14966							-90.84456	410.70538	-1602.73132										
18	0.170																									42.43226	921.24005	-1579.67456				56.25960	715.14642	-1494.87781				-169.63637	831.03113	-1436.38696							-92.72248	411.16806	-1601.59753										
19	0.180																									42.28290	920.77148	-1575.78662				54.61692	714.86487	-1491.40405				-171.53671	831.52563	-1433.30139							-94.02086	411.18118	-1600.42969										
20	0.190																									42.49855	920.84827	-1572.87561				51.72788	713.51996	-1484.24524				-172.62128	829.75055	-1432.22498							-95.39828	411.38089	-1599.53723										
21	0.200																									42.19399	919.99890	-1568.14587				51.15465	714.26697	-1482.18213				-175.56630	828.84918	-1428.96326							-96.78463	411.09534	-1597.70142										
22	0.210																									41.82598	919.21661	-1563.25854				48.21103	714.81818	-1478.06531				-179.06441	829.16302	-1427.91589							-98.59479	410.86389	-1595.61511										
23	0.220																-430.93069	1234.67761	-1541.00037							41.64346	918.75397	-1559.14343				44.61890	713.76526	-1472.02246				-182.00079	827.79041	-1428.19360							-99.55032	411.05585	-1593.92773										
24	0.230																-432.58472	1235.80566	-1541.60913							40.93845	919.04926	-1555.91296				40.39063	713.72357	-1465.32446				-183.97798	828.18811	-1425.62683							-99.87281	410.86923	-1592.25427										
25	0.240																-433.93982	1235.46692	-1539.07043							38.56787	918.14362	-1547.71667				36.33356	714.34137	-1458.47766				-185.13065	827.53088	-1424.05151							-101.12042	410.54581	-1589.96167										
26	0.250																-435.42819	1235.85938	-1538.19543							39.00028	917.30231	-1544.77124				33.65290	715.29712	-1452.74451				-188.75404	829.10211	-1418.57605							-101.25911	410.81204	-1588.69788										
27	0.260																-436.27652	1236.20251	-1537.58594							37.58751	917.05878	-1539.97266				28.68288	715.46564	-1445.62195				-191.11443	827.64441	-1422.78430	-385.12128	834.94452	-1462.40198				-102.65416	410.68927	-1585.73828										
28	0.270																-438.02463	1236.09998	-1535.06018							35.56422	916.63892	-1534.75183				24.25526	716.87421	-1439.34204				-193.83400	827.77203	-1418.31299	-386.34546	834.93726	-1461.67542				-104.47893	410.56271	-1582.10742										
29	0.280																-439.83945	1236.31812	-1533.28577							33.73192	915.63513	-1528.85046				19.86038	718.23230	-1433.09106				-194.81468	827.97211	-1417.14465	-387.25500	834.99353	-1462.80042				-104.75082	409.99878	-1580.03943										
30	0.290																-441.39474	1237.62463	-1534.36377							31.45382	915.73517	-1524.46924				15.27317	718.37384	-1424.16504				-196.92239	828.88599	-1411.89844	-389.71817	835.54449	-1457.84692				-105.89622	409.89700	-1576.71985										
31	0.300																-443.06351	1236.74487	-1530.22180							28.91536	914.44226	-1518.11584				9.32118	718.41467	-1416.39185				-198.79102	829.01990	-1408.67419	-391.62115	836.19141	-1454.08386				-106.97540	409.35934	-1574.04553	-223.98981	887.49652	-1728.95422							
32	0.310																-445.02008	1236.47656	-1527.38550							25.87035	913.87384	-1512.60168				4.83298	719.64990	-1410.60486				-200.64951	828.52625	-1405.67480	-393.25854	834.82605	-1453.42651				-108.18408	409.23425	-1571.78577	-225.51028	887.68835	-1726.77441							
33	0.320										-405.51596	1344.96448	-1355.54651				-446.84158	1236.11450	-1524.50598							23.34088	913.22357	-1507.26709				-0.94170	719.92114	-1399.95886				-202.10605	826.82867	-1406.59570	-394.92249	833.74268	-1453.46191				-109.96616	409.32938	-1568.65442	-226.81602	887.50922	-1723.83215							
34	0.330										-407.76117	1344.87146	-1352.85339				-449.21109	1236.63818	-1523.43884							19.87551	911.86621	-1500.39343				-6.11366	720.44910	-1394.43591				-204.55211	826.74048	-1404.92273	-398.06027	835.06329	-1446.94409				-110.61102	408.72781	-1567.26160	-228.26022	887.37573	-1720.97168							
35	0.340										-410.84070	1346.14575	-1353.36023				-451.57980	1235.84961	-1519.63232							16.89967	911.82825	-1495.79419				-12.74069	720.14484	-1384.53760				-206.44484	825.95313	-1404.85425	-398.73401	833.79089	-1450.31958				-112.04759	407.67142	-1564.03113	-229.74857	887.45496	-1718.57129							
36	0.350										-412.70282	1345.81274	-1350.99023				-453.67120	1236.31116	-1519.00793							13.25048	909.76837	-1487.65625				-18.22635	720.74402	-1376.60583				-209.26097	827.49554	-1397.27051	-401.54852	835.58539	-1442.18506				-113.00420	407.33401	-1562.09705	-231.08829	886.91046	-1715.11755							
37	0.360										-416.21609	1345.25244	-1346.44800				-455.49872	1234.58923	-1513.84155							10.00840	909.57465	-1482.95032				-24.30058	720.67188	-1369.92993				-210.35092	827.09790	-1395.06702	-404.56830	833.47443	-1440.14001				-114.78773	407.07990	-1559.65942	-232.68697	886.61908	-1712.29639							
38	0.370										-418.20389	1344.47949	-1343.38232				-458.97488	1234.58228	-1511.65356							6.56405	908.23682	-1476.36011				-31.11462	720.36536	-1359.68701				-212.91428	826.69684	-1389.70081	-406.00647	832.74005	-1439.04260				-116.12609	406.87735	-1557.14648	-234.33694	886.33453	-1709.25378							
39	0.380										-422.00815	1344.32349	-1340.10156				-461.13107	1234.07434	-1509.58252							2.72974	907.94989	-1471.18469				-37.78199	721.21454	-1352.43579				-215.79430	825.77740	-1386.22693	-409.39441	833.57721	-1433.85950				-117.82555	406.42725	-1555.40295	-235.93059	885.69342	-1705.54614							
40	0.390										-425.11569	1344.90601	-1339.46716				-464.54636	1233.16846	-1505.62988							-1.06690	907.10260	-1464.74182				-43.04649	721.20355	-1346.00989				-219.17676	824.14746	-1385.23145	-411.67419	832.39764	-1433.34778				-119.26676	406.94833	-1553.67468	-237.74690	885.05945	-1702.29297							
41	0.400										-428.25146	1345.52124	-1338.73889				-466.94324	1232.68835	-1503.68933							-4.66143	906.08673	-1458.62231				-49.43969	721.45679	-1337.74976				-222.48865	824.50500	-1381.79565	-414.91016	833.03302	-1426.62817				-120.70789	406.66385	-1552.16968	-239.73470	884.40875	-1698.57471							
42	0.410										-432.28171	1345.39563	-1335.52417				-470.53632	1232.09924	-1500.88684							-8.83019	905.23187	-1452.17590				-55.94882	721.30444	-1330.01636				-224.97005	825.16925	-1375.48608	-417.60254	830.52545	-1427.31726				-122.90933	406.55203	-1549.99707	-241.76762	883.61786	-1694.71216							
43	0.420										-434.77399	1343.55371	-1329.28271				-473.71109	1230.03992	-1495.12842							-12.49867	903.97333	-1445.11719				-61.63825	721.87250	-1323.36157				-228.76353	824.59766	-1367.24988	-420.47159	830.67383	-1423.03784				-123.88290	406.27325	-1549.06128	-244.14244	882.84369	-1690.78442							
